<?xml version="1.0" encoding="UTF-8" standalone="no"?>
<svg xmlns:svg="http://www.w3.org/2000/svg"
xmlns="http://www.w3.org/2000/svg" version="1.1"
width="360.0" height="282.2">
<!-- Created with the Wikimedia westminster parliament diagram creator (http://tools.wmflabs.org/parliamentdiagram/westminsterinputform.html) -->
<g id="diagram">
  <g id="headbench">
  <g style="fill:cyan" id="Cyan">
    <rect x="5.9722" y="132.3611" rx="7.00" ry="7.00" width="17.50" height="17.50"/>
  </g>
  </g>
  <g id="leftbench">
  <g style="fill:pink" id="Pink">
    <rect x="25.4167" y="103.1944" rx="7.00" ry="7.00" width="17.50" height="17.50"/>
    <rect x="25.4167" y="83.7500" rx="7.00" ry="7.00" width="17.50" height="17.50"/>
    <rect x="25.4167" y="64.3056" rx="7.00" ry="7.00" width="17.50" height="17.50"/>
    <rect x="25.4167" y="44.8611" rx="7.00" ry="7.00" width="17.50" height="17.50"/>
    <rect x="25.4167" y="25.4167" rx="7.00" ry="7.00" width="17.50" height="17.50"/>
    <rect x="25.4167" y="5.9722" rx="7.00" ry="7.00" width="17.50" height="17.50"/>
    <rect x="44.8611" y="103.1944" rx="7.00" ry="7.00" width="17.50" height="17.50"/>
    <rect x="44.8611" y="83.7500" rx="7.00" ry="7.00" width="17.50" height="17.50"/>
    <rect x="44.8611" y="64.3056" rx="7.00" ry="7.00" width="17.50" height="17.50"/>
    <rect x="44.8611" y="44.8611" rx="7.00" ry="7.00" width="17.50" height="17.50"/>
    <rect x="44.8611" y="25.4167" rx="7.00" ry="7.00" width="17.50" height="17.50"/>
    <rect x="44.8611" y="5.9722" rx="7.00" ry="7.00" width="17.50" height="17.50"/>
    <rect x="64.3056" y="103.1944" rx="7.00" ry="7.00" width="17.50" height="17.50"/>
    <rect x="64.3056" y="83.7500" rx="7.00" ry="7.00" width="17.50" height="17.50"/>
    <rect x="64.3056" y="64.3056" rx="7.00" ry="7.00" width="17.50" height="17.50"/>
    <rect x="64.3056" y="44.8611" rx="7.00" ry="7.00" width="17.50" height="17.50"/>
    <rect x="64.3056" y="25.4167" rx="7.00" ry="7.00" width="17.50" height="17.50"/>
    <rect x="64.3056" y="5.9722" rx="7.00" ry="7.00" width="17.50" height="17.50"/>
    <rect x="83.7500" y="103.1944" rx="7.00" ry="7.00" width="17.50" height="17.50"/>
    <rect x="83.7500" y="83.7500" rx="7.00" ry="7.00" width="17.50" height="17.50"/>
    <rect x="83.7500" y="64.3056" rx="7.00" ry="7.00" width="17.50" height="17.50"/>
    <rect x="83.7500" y="44.8611" rx="7.00" ry="7.00" width="17.50" height="17.50"/>
    <rect x="83.7500" y="25.4167" rx="7.00" ry="7.00" width="17.50" height="17.50"/>
    <rect x="83.7500" y="5.9722" rx="7.00" ry="7.00" width="17.50" height="17.50"/>
    <rect x="103.1944" y="103.1944" rx="7.00" ry="7.00" width="17.50" height="17.50"/>
    <rect x="103.1944" y="83.7500" rx="7.00" ry="7.00" width="17.50" height="17.50"/>
    <rect x="103.1944" y="64.3056" rx="7.00" ry="7.00" width="17.50" height="17.50"/>
    <rect x="103.1944" y="44.8611" rx="7.00" ry="7.00" width="17.50" height="17.50"/>
    <rect x="103.1944" y="25.4167" rx="7.00" ry="7.00" width="17.50" height="17.50"/>
    <rect x="103.1944" y="5.9722" rx="7.00" ry="7.00" width="17.50" height="17.50"/>
    <rect x="122.6389" y="103.1944" rx="7.00" ry="7.00" width="17.50" height="17.50"/>
    <rect x="122.6389" y="83.7500" rx="7.00" ry="7.00" width="17.50" height="17.50"/>
    <rect x="122.6389" y="64.3056" rx="7.00" ry="7.00" width="17.50" height="17.50"/>
    <rect x="122.6389" y="44.8611" rx="7.00" ry="7.00" width="17.50" height="17.50"/>
    <rect x="122.6389" y="25.4167" rx="7.00" ry="7.00" width="17.50" height="17.50"/>
    <rect x="122.6389" y="5.9722" rx="7.00" ry="7.00" width="17.50" height="17.50"/>
    <rect x="142.0833" y="103.1944" rx="7.00" ry="7.00" width="17.50" height="17.50"/>
    <rect x="142.0833" y="83.7500" rx="7.00" ry="7.00" width="17.50" height="17.50"/>
    <rect x="142.0833" y="64.3056" rx="7.00" ry="7.00" width="17.50" height="17.50"/>
    <rect x="142.0833" y="44.8611" rx="7.00" ry="7.00" width="17.50" height="17.50"/>
    <rect x="142.0833" y="25.4167" rx="7.00" ry="7.00" width="17.50" height="17.50"/>
    <rect x="142.0833" y="5.9722" rx="7.00" ry="7.00" width="17.50" height="17.50"/>
    <rect x="161.5278" y="103.1944" rx="7.00" ry="7.00" width="17.50" height="17.50"/>
    <rect x="161.5278" y="83.7500" rx="7.00" ry="7.00" width="17.50" height="17.50"/>
    <rect x="161.5278" y="64.3056" rx="7.00" ry="7.00" width="17.50" height="17.50"/>
    <rect x="161.5278" y="44.8611" rx="7.00" ry="7.00" width="17.50" height="17.50"/>
    <rect x="161.5278" y="25.4167" rx="7.00" ry="7.00" width="17.50" height="17.50"/>
    <rect x="161.5278" y="5.9722" rx="7.00" ry="7.00" width="17.50" height="17.50"/>
  </g>
  </g>
  <g id="rightbench">
  <g style="fill:cyan" id="Cyan">
    <rect x="25.4167" y="161.5278" rx="7.00" ry="7.00" width="17.50" height="17.50"/>
    <rect x="25.4167" y="180.9722" rx="7.00" ry="7.00" width="17.50" height="17.50"/>
    <rect x="25.4167" y="200.4167" rx="7.00" ry="7.00" width="17.50" height="17.50"/>
    <rect x="25.4167" y="219.8611" rx="7.00" ry="7.00" width="17.50" height="17.50"/>
    <rect x="25.4167" y="239.3056" rx="7.00" ry="7.00" width="17.50" height="17.50"/>
    <rect x="25.4167" y="258.7500" rx="7.00" ry="7.00" width="17.50" height="17.50"/>
    <rect x="44.8611" y="161.5278" rx="7.00" ry="7.00" width="17.50" height="17.50"/>
    <rect x="44.8611" y="180.9722" rx="7.00" ry="7.00" width="17.50" height="17.50"/>
    <rect x="44.8611" y="200.4167" rx="7.00" ry="7.00" width="17.50" height="17.50"/>
    <rect x="44.8611" y="219.8611" rx="7.00" ry="7.00" width="17.50" height="17.50"/>
    <rect x="44.8611" y="239.3056" rx="7.00" ry="7.00" width="17.50" height="17.50"/>
    <rect x="44.8611" y="258.7500" rx="7.00" ry="7.00" width="17.50" height="17.50"/>
    <rect x="64.3056" y="161.5278" rx="7.00" ry="7.00" width="17.50" height="17.50"/>
    <rect x="64.3056" y="180.9722" rx="7.00" ry="7.00" width="17.50" height="17.50"/>
    <rect x="64.3056" y="200.4167" rx="7.00" ry="7.00" width="17.50" height="17.50"/>
    <rect x="64.3056" y="219.8611" rx="7.00" ry="7.00" width="17.50" height="17.50"/>
    <rect x="64.3056" y="239.3056" rx="7.00" ry="7.00" width="17.50" height="17.50"/>
    <rect x="64.3056" y="258.7500" rx="7.00" ry="7.00" width="17.50" height="17.50"/>
    <rect x="83.7500" y="161.5278" rx="7.00" ry="7.00" width="17.50" height="17.50"/>
    <rect x="83.7500" y="180.9722" rx="7.00" ry="7.00" width="17.50" height="17.50"/>
    <rect x="83.7500" y="200.4167" rx="7.00" ry="7.00" width="17.50" height="17.50"/>
    <rect x="83.7500" y="219.8611" rx="7.00" ry="7.00" width="17.50" height="17.50"/>
    <rect x="83.7500" y="239.3056" rx="7.00" ry="7.00" width="17.50" height="17.50"/>
    <rect x="83.7500" y="258.7500" rx="7.00" ry="7.00" width="17.50" height="17.50"/>
    <rect x="103.1944" y="161.5278" rx="7.00" ry="7.00" width="17.50" height="17.50"/>
    <rect x="103.1944" y="180.9722" rx="7.00" ry="7.00" width="17.50" height="17.50"/>
    <rect x="103.1944" y="200.4167" rx="7.00" ry="7.00" width="17.50" height="17.50"/>
    <rect x="103.1944" y="219.8611" rx="7.00" ry="7.00" width="17.50" height="17.50"/>
    <rect x="103.1944" y="239.3056" rx="7.00" ry="7.00" width="17.50" height="17.50"/>
    <rect x="103.1944" y="258.7500" rx="7.00" ry="7.00" width="17.50" height="17.50"/>
    <rect x="122.6389" y="161.5278" rx="7.00" ry="7.00" width="17.50" height="17.50"/>
    <rect x="122.6389" y="180.9722" rx="7.00" ry="7.00" width="17.50" height="17.50"/>
    <rect x="122.6389" y="200.4167" rx="7.00" ry="7.00" width="17.50" height="17.50"/>
    <rect x="122.6389" y="219.8611" rx="7.00" ry="7.00" width="17.50" height="17.50"/>
    <rect x="122.6389" y="239.3056" rx="7.00" ry="7.00" width="17.50" height="17.50"/>
    <rect x="122.6389" y="258.7500" rx="7.00" ry="7.00" width="17.50" height="17.50"/>
    <rect x="142.0833" y="161.5278" rx="7.00" ry="7.00" width="17.50" height="17.50"/>
    <rect x="142.0833" y="180.9722" rx="7.00" ry="7.00" width="17.50" height="17.50"/>
    <rect x="142.0833" y="200.4167" rx="7.00" ry="7.00" width="17.50" height="17.50"/>
    <rect x="142.0833" y="219.8611" rx="7.00" ry="7.00" width="17.50" height="17.50"/>
    <rect x="142.0833" y="239.3056" rx="7.00" ry="7.00" width="17.50" height="17.50"/>
    <rect x="142.0833" y="258.7500" rx="7.00" ry="7.00" width="17.50" height="17.50"/>
    <rect x="161.5278" y="161.5278" rx="7.00" ry="7.00" width="17.50" height="17.50"/>
    <rect x="161.5278" y="180.9722" rx="7.00" ry="7.00" width="17.50" height="17.50"/>
    <rect x="161.5278" y="200.4167" rx="7.00" ry="7.00" width="17.50" height="17.50"/>
    <rect x="161.5278" y="219.8611" rx="7.00" ry="7.00" width="17.50" height="17.50"/>
    <rect x="161.5278" y="239.3056" rx="7.00" ry="7.00" width="17.50" height="17.50"/>
    <rect x="161.5278" y="258.7500" rx="7.00" ry="7.00" width="17.50" height="17.50"/>
    <rect x="180.9722" y="161.5278" rx="7.00" ry="7.00" width="17.50" height="17.50"/>
    <rect x="180.9722" y="180.9722" rx="7.00" ry="7.00" width="17.50" height="17.50"/>
    <rect x="180.9722" y="200.4167" rx="7.00" ry="7.00" width="17.50" height="17.50"/>
    <rect x="180.9722" y="219.8611" rx="7.00" ry="7.00" width="17.50" height="17.50"/>
    <rect x="180.9722" y="239.3056" rx="7.00" ry="7.00" width="17.50" height="17.50"/>
    <rect x="180.9722" y="258.7500" rx="7.00" ry="7.00" width="17.50" height="17.50"/>
    <rect x="200.4167" y="161.5278" rx="7.00" ry="7.00" width="17.50" height="17.50"/>
    <rect x="200.4167" y="180.9722" rx="7.00" ry="7.00" width="17.50" height="17.50"/>
    <rect x="200.4167" y="200.4167" rx="7.00" ry="7.00" width="17.50" height="17.50"/>
    <rect x="200.4167" y="219.8611" rx="7.00" ry="7.00" width="17.50" height="17.50"/>
    <rect x="200.4167" y="239.3056" rx="7.00" ry="7.00" width="17.50" height="17.50"/>
    <rect x="200.4167" y="258.7500" rx="7.00" ry="7.00" width="17.50" height="17.50"/>
    <rect x="219.8611" y="161.5278" rx="7.00" ry="7.00" width="17.50" height="17.50"/>
    <rect x="219.8611" y="180.9722" rx="7.00" ry="7.00" width="17.50" height="17.50"/>
    <rect x="219.8611" y="200.4167" rx="7.00" ry="7.00" width="17.50" height="17.50"/>
    <rect x="219.8611" y="219.8611" rx="7.00" ry="7.00" width="17.50" height="17.50"/>
    <rect x="219.8611" y="239.3056" rx="7.00" ry="7.00" width="17.50" height="17.50"/>
    <rect x="219.8611" y="258.7500" rx="7.00" ry="7.00" width="17.50" height="17.50"/>
    <rect x="239.3056" y="161.5278" rx="7.00" ry="7.00" width="17.50" height="17.50"/>
    <rect x="239.3056" y="180.9722" rx="7.00" ry="7.00" width="17.50" height="17.50"/>
    <rect x="239.3056" y="200.4167" rx="7.00" ry="7.00" width="17.50" height="17.50"/>
    <rect x="239.3056" y="219.8611" rx="7.00" ry="7.00" width="17.50" height="17.50"/>
    <rect x="239.3056" y="239.3056" rx="7.00" ry="7.00" width="17.50" height="17.50"/>
    <rect x="239.3056" y="258.7500" rx="7.00" ry="7.00" width="17.50" height="17.50"/>
    <rect x="258.7500" y="161.5278" rx="7.00" ry="7.00" width="17.50" height="17.50"/>
    <rect x="258.7500" y="180.9722" rx="7.00" ry="7.00" width="17.50" height="17.50"/>
    <rect x="258.7500" y="200.4167" rx="7.00" ry="7.00" width="17.50" height="17.50"/>
    <rect x="258.7500" y="219.8611" rx="7.00" ry="7.00" width="17.50" height="17.50"/>
    <rect x="258.7500" y="239.3056" rx="7.00" ry="7.00" width="17.50" height="17.50"/>
    <rect x="258.7500" y="258.7500" rx="7.00" ry="7.00" width="17.50" height="17.50"/>
    <rect x="278.1944" y="161.5278" rx="7.00" ry="7.00" width="17.50" height="17.50"/>
    <rect x="278.1944" y="180.9722" rx="7.00" ry="7.00" width="17.50" height="17.50"/>
    <rect x="278.1944" y="200.4167" rx="7.00" ry="7.00" width="17.50" height="17.50"/>
    <rect x="278.1944" y="219.8611" rx="7.00" ry="7.00" width="17.50" height="17.50"/>
    <rect x="278.1944" y="239.3056" rx="7.00" ry="7.00" width="17.50" height="17.50"/>
    <rect x="278.1944" y="258.7500" rx="7.00" ry="7.00" width="17.50" height="17.50"/>
    <rect x="297.6389" y="161.5278" rx="7.00" ry="7.00" width="17.50" height="17.50"/>
    <rect x="297.6389" y="180.9722" rx="7.00" ry="7.00" width="17.50" height="17.50"/>
    <rect x="297.6389" y="200.4167" rx="7.00" ry="7.00" width="17.50" height="17.50"/>
    <rect x="297.6389" y="219.8611" rx="7.00" ry="7.00" width="17.50" height="17.50"/>
    <rect x="297.6389" y="239.3056" rx="7.00" ry="7.00" width="17.50" height="17.50"/>
    <rect x="297.6389" y="258.7500" rx="7.00" ry="7.00" width="17.50" height="17.50"/>
    <rect x="317.0833" y="161.5278" rx="7.00" ry="7.00" width="17.50" height="17.50"/>
    <rect x="317.0833" y="180.9722" rx="7.00" ry="7.00" width="17.50" height="17.50"/>
    <rect x="317.0833" y="200.4167" rx="7.00" ry="7.00" width="17.50" height="17.50"/>
    <rect x="317.0833" y="219.8611" rx="7.00" ry="7.00" width="17.50" height="17.50"/>
    <rect x="317.0833" y="239.3056" rx="7.00" ry="7.00" width="17.50" height="17.50"/>
    <rect x="317.0833" y="258.7500" rx="7.00" ry="7.00" width="17.50" height="17.50"/>
    <rect x="336.5278" y="161.5278" rx="7.00" ry="7.00" width="17.50" height="17.50"/>
    <rect x="336.5278" y="180.9722" rx="7.00" ry="7.00" width="17.50" height="17.50"/>
    <rect x="336.5278" y="200.4167" rx="7.00" ry="7.00" width="17.50" height="17.50"/>
    <rect x="336.5278" y="219.8611" rx="7.00" ry="7.00" width="17.50" height="17.50"/>
    <rect x="336.5278" y="239.3056" rx="7.00" ry="7.00" width="17.50" height="17.50"/>
  </g>
  </g>
  <g id="centerbench">
  </g>
</g>
</svg>
