<?xml version="1.0" encoding="UTF-8" standalone="no"?>
<svg xmlns:svg="http://www.w3.org/2000/svg"
xmlns="http://www.w3.org/2000/svg" version="1.1"
width="360.0" height="214.2">
<!-- Created with the Wikimedia westminster parliament diagram creator (http://tools.wmflabs.org/parliamentdiagram/westminsterinputform.html) -->
<g id="diagram">
  <g id="headbench">
  <g style="fill:pink" id="Pink">
    <rect x="5.7292" y="100.5208" rx="5.25" ry="5.25" width="13.12" height="13.12"/>
  </g>
  </g>
  <g id="leftbench">
  <g style="fill:cyan" id="Cyan">
    <rect x="20.3125" y="78.6458" rx="5.25" ry="5.25" width="13.12" height="13.12"/>
    <rect x="20.3125" y="64.0625" rx="5.25" ry="5.25" width="13.12" height="13.12"/>
    <rect x="20.3125" y="49.4792" rx="5.25" ry="5.25" width="13.12" height="13.12"/>
    <rect x="20.3125" y="34.8958" rx="5.25" ry="5.25" width="13.12" height="13.12"/>
    <rect x="20.3125" y="20.3125" rx="5.25" ry="5.25" width="13.12" height="13.12"/>
    <rect x="20.3125" y="5.7292" rx="5.25" ry="5.25" width="13.12" height="13.12"/>
    <rect x="34.8958" y="78.6458" rx="5.25" ry="5.25" width="13.12" height="13.12"/>
    <rect x="34.8958" y="64.0625" rx="5.25" ry="5.25" width="13.12" height="13.12"/>
    <rect x="34.8958" y="49.4792" rx="5.25" ry="5.25" width="13.12" height="13.12"/>
    <rect x="34.8958" y="34.8958" rx="5.25" ry="5.25" width="13.12" height="13.12"/>
    <rect x="34.8958" y="20.3125" rx="5.25" ry="5.25" width="13.12" height="13.12"/>
    <rect x="34.8958" y="5.7292" rx="5.25" ry="5.25" width="13.12" height="13.12"/>
    <rect x="49.4792" y="78.6458" rx="5.25" ry="5.25" width="13.12" height="13.12"/>
  </g>
  </g>
  <g id="rightbench">
  <g style="fill:pink" id="Pink">
    <rect x="20.3125" y="122.3958" rx="5.25" ry="5.25" width="13.12" height="13.12"/>
    <rect x="20.3125" y="136.9792" rx="5.25" ry="5.25" width="13.12" height="13.12"/>
    <rect x="20.3125" y="151.5625" rx="5.25" ry="5.25" width="13.12" height="13.12"/>
    <rect x="20.3125" y="166.1458" rx="5.25" ry="5.25" width="13.12" height="13.12"/>
    <rect x="20.3125" y="180.7292" rx="5.25" ry="5.25" width="13.12" height="13.12"/>
    <rect x="20.3125" y="195.3125" rx="5.25" ry="5.25" width="13.12" height="13.12"/>
    <rect x="34.8958" y="122.3958" rx="5.25" ry="5.25" width="13.12" height="13.12"/>
    <rect x="34.8958" y="136.9792" rx="5.25" ry="5.25" width="13.12" height="13.12"/>
    <rect x="34.8958" y="151.5625" rx="5.25" ry="5.25" width="13.12" height="13.12"/>
    <rect x="34.8958" y="166.1458" rx="5.25" ry="5.25" width="13.12" height="13.12"/>
    <rect x="34.8958" y="180.7292" rx="5.25" ry="5.25" width="13.12" height="13.12"/>
    <rect x="34.8958" y="195.3125" rx="5.25" ry="5.25" width="13.12" height="13.12"/>
    <rect x="49.4792" y="122.3958" rx="5.25" ry="5.25" width="13.12" height="13.12"/>
    <rect x="49.4792" y="136.9792" rx="5.25" ry="5.25" width="13.12" height="13.12"/>
    <rect x="49.4792" y="151.5625" rx="5.25" ry="5.25" width="13.12" height="13.12"/>
    <rect x="49.4792" y="166.1458" rx="5.25" ry="5.25" width="13.12" height="13.12"/>
    <rect x="49.4792" y="180.7292" rx="5.25" ry="5.25" width="13.12" height="13.12"/>
    <rect x="49.4792" y="195.3125" rx="5.25" ry="5.25" width="13.12" height="13.12"/>
    <rect x="64.0625" y="122.3958" rx="5.25" ry="5.25" width="13.12" height="13.12"/>
    <rect x="64.0625" y="136.9792" rx="5.25" ry="5.25" width="13.12" height="13.12"/>
    <rect x="64.0625" y="151.5625" rx="5.25" ry="5.25" width="13.12" height="13.12"/>
    <rect x="64.0625" y="166.1458" rx="5.25" ry="5.25" width="13.12" height="13.12"/>
    <rect x="64.0625" y="180.7292" rx="5.25" ry="5.25" width="13.12" height="13.12"/>
    <rect x="64.0625" y="195.3125" rx="5.25" ry="5.25" width="13.12" height="13.12"/>
    <rect x="78.6458" y="122.3958" rx="5.25" ry="5.25" width="13.12" height="13.12"/>
    <rect x="78.6458" y="136.9792" rx="5.25" ry="5.25" width="13.12" height="13.12"/>
    <rect x="78.6458" y="151.5625" rx="5.25" ry="5.25" width="13.12" height="13.12"/>
    <rect x="78.6458" y="166.1458" rx="5.25" ry="5.25" width="13.12" height="13.12"/>
    <rect x="78.6458" y="180.7292" rx="5.25" ry="5.25" width="13.12" height="13.12"/>
    <rect x="78.6458" y="195.3125" rx="5.25" ry="5.25" width="13.12" height="13.12"/>
    <rect x="93.2292" y="122.3958" rx="5.25" ry="5.25" width="13.12" height="13.12"/>
    <rect x="93.2292" y="136.9792" rx="5.25" ry="5.25" width="13.12" height="13.12"/>
    <rect x="93.2292" y="151.5625" rx="5.25" ry="5.25" width="13.12" height="13.12"/>
    <rect x="93.2292" y="166.1458" rx="5.25" ry="5.25" width="13.12" height="13.12"/>
    <rect x="93.2292" y="180.7292" rx="5.25" ry="5.25" width="13.12" height="13.12"/>
    <rect x="93.2292" y="195.3125" rx="5.25" ry="5.25" width="13.12" height="13.12"/>
    <rect x="107.8125" y="122.3958" rx="5.25" ry="5.25" width="13.12" height="13.12"/>
    <rect x="107.8125" y="136.9792" rx="5.25" ry="5.25" width="13.12" height="13.12"/>
    <rect x="107.8125" y="151.5625" rx="5.25" ry="5.25" width="13.12" height="13.12"/>
    <rect x="107.8125" y="166.1458" rx="5.25" ry="5.25" width="13.12" height="13.12"/>
    <rect x="107.8125" y="180.7292" rx="5.25" ry="5.25" width="13.12" height="13.12"/>
    <rect x="107.8125" y="195.3125" rx="5.25" ry="5.25" width="13.12" height="13.12"/>
    <rect x="122.3958" y="122.3958" rx="5.25" ry="5.25" width="13.12" height="13.12"/>
    <rect x="122.3958" y="136.9792" rx="5.25" ry="5.25" width="13.12" height="13.12"/>
    <rect x="122.3958" y="151.5625" rx="5.25" ry="5.25" width="13.12" height="13.12"/>
    <rect x="122.3958" y="166.1458" rx="5.25" ry="5.25" width="13.12" height="13.12"/>
    <rect x="122.3958" y="180.7292" rx="5.25" ry="5.25" width="13.12" height="13.12"/>
    <rect x="122.3958" y="195.3125" rx="5.25" ry="5.25" width="13.12" height="13.12"/>
    <rect x="136.9792" y="122.3958" rx="5.25" ry="5.25" width="13.12" height="13.12"/>
    <rect x="136.9792" y="136.9792" rx="5.25" ry="5.25" width="13.12" height="13.12"/>
    <rect x="136.9792" y="151.5625" rx="5.25" ry="5.25" width="13.12" height="13.12"/>
    <rect x="136.9792" y="166.1458" rx="5.25" ry="5.25" width="13.12" height="13.12"/>
    <rect x="136.9792" y="180.7292" rx="5.25" ry="5.25" width="13.12" height="13.12"/>
    <rect x="136.9792" y="195.3125" rx="5.25" ry="5.25" width="13.12" height="13.12"/>
    <rect x="151.5625" y="122.3958" rx="5.25" ry="5.25" width="13.12" height="13.12"/>
    <rect x="151.5625" y="136.9792" rx="5.25" ry="5.25" width="13.12" height="13.12"/>
    <rect x="151.5625" y="151.5625" rx="5.25" ry="5.25" width="13.12" height="13.12"/>
    <rect x="151.5625" y="166.1458" rx="5.25" ry="5.25" width="13.12" height="13.12"/>
    <rect x="151.5625" y="180.7292" rx="5.25" ry="5.25" width="13.12" height="13.12"/>
    <rect x="151.5625" y="195.3125" rx="5.25" ry="5.25" width="13.12" height="13.12"/>
    <rect x="166.1458" y="122.3958" rx="5.25" ry="5.25" width="13.12" height="13.12"/>
    <rect x="166.1458" y="136.9792" rx="5.25" ry="5.25" width="13.12" height="13.12"/>
    <rect x="166.1458" y="151.5625" rx="5.25" ry="5.25" width="13.12" height="13.12"/>
    <rect x="166.1458" y="166.1458" rx="5.25" ry="5.25" width="13.12" height="13.12"/>
    <rect x="166.1458" y="180.7292" rx="5.25" ry="5.25" width="13.12" height="13.12"/>
    <rect x="166.1458" y="195.3125" rx="5.25" ry="5.25" width="13.12" height="13.12"/>
    <rect x="180.7292" y="122.3958" rx="5.25" ry="5.25" width="13.12" height="13.12"/>
    <rect x="180.7292" y="136.9792" rx="5.25" ry="5.25" width="13.12" height="13.12"/>
    <rect x="180.7292" y="151.5625" rx="5.25" ry="5.25" width="13.12" height="13.12"/>
    <rect x="180.7292" y="166.1458" rx="5.25" ry="5.25" width="13.12" height="13.12"/>
    <rect x="180.7292" y="180.7292" rx="5.25" ry="5.25" width="13.12" height="13.12"/>
    <rect x="180.7292" y="195.3125" rx="5.25" ry="5.25" width="13.12" height="13.12"/>
    <rect x="195.3125" y="122.3958" rx="5.25" ry="5.25" width="13.12" height="13.12"/>
    <rect x="195.3125" y="136.9792" rx="5.25" ry="5.25" width="13.12" height="13.12"/>
    <rect x="195.3125" y="151.5625" rx="5.25" ry="5.25" width="13.12" height="13.12"/>
    <rect x="195.3125" y="166.1458" rx="5.25" ry="5.25" width="13.12" height="13.12"/>
    <rect x="195.3125" y="180.7292" rx="5.25" ry="5.25" width="13.12" height="13.12"/>
    <rect x="195.3125" y="195.3125" rx="5.25" ry="5.25" width="13.12" height="13.12"/>
    <rect x="209.8958" y="122.3958" rx="5.25" ry="5.25" width="13.12" height="13.12"/>
    <rect x="209.8958" y="136.9792" rx="5.25" ry="5.25" width="13.12" height="13.12"/>
    <rect x="209.8958" y="151.5625" rx="5.25" ry="5.25" width="13.12" height="13.12"/>
    <rect x="209.8958" y="166.1458" rx="5.25" ry="5.25" width="13.12" height="13.12"/>
    <rect x="209.8958" y="180.7292" rx="5.25" ry="5.25" width="13.12" height="13.12"/>
    <rect x="209.8958" y="195.3125" rx="5.25" ry="5.25" width="13.12" height="13.12"/>
    <rect x="224.4792" y="122.3958" rx="5.25" ry="5.25" width="13.12" height="13.12"/>
    <rect x="224.4792" y="136.9792" rx="5.25" ry="5.25" width="13.12" height="13.12"/>
    <rect x="224.4792" y="151.5625" rx="5.25" ry="5.25" width="13.12" height="13.12"/>
    <rect x="224.4792" y="166.1458" rx="5.25" ry="5.25" width="13.12" height="13.12"/>
    <rect x="224.4792" y="180.7292" rx="5.25" ry="5.25" width="13.12" height="13.12"/>
    <rect x="224.4792" y="195.3125" rx="5.25" ry="5.25" width="13.12" height="13.12"/>
    <rect x="239.0625" y="122.3958" rx="5.25" ry="5.25" width="13.12" height="13.12"/>
    <rect x="239.0625" y="136.9792" rx="5.25" ry="5.25" width="13.12" height="13.12"/>
    <rect x="239.0625" y="151.5625" rx="5.25" ry="5.25" width="13.12" height="13.12"/>
    <rect x="239.0625" y="166.1458" rx="5.25" ry="5.25" width="13.12" height="13.12"/>
    <rect x="239.0625" y="180.7292" rx="5.25" ry="5.25" width="13.12" height="13.12"/>
    <rect x="239.0625" y="195.3125" rx="5.25" ry="5.25" width="13.12" height="13.12"/>
    <rect x="253.6458" y="122.3958" rx="5.25" ry="5.25" width="13.12" height="13.12"/>
    <rect x="253.6458" y="136.9792" rx="5.25" ry="5.25" width="13.12" height="13.12"/>
    <rect x="253.6458" y="151.5625" rx="5.25" ry="5.25" width="13.12" height="13.12"/>
    <rect x="253.6458" y="166.1458" rx="5.25" ry="5.25" width="13.12" height="13.12"/>
    <rect x="253.6458" y="180.7292" rx="5.25" ry="5.25" width="13.12" height="13.12"/>
    <rect x="253.6458" y="195.3125" rx="5.25" ry="5.25" width="13.12" height="13.12"/>
    <rect x="268.2292" y="122.3958" rx="5.25" ry="5.25" width="13.12" height="13.12"/>
    <rect x="268.2292" y="136.9792" rx="5.25" ry="5.25" width="13.12" height="13.12"/>
    <rect x="268.2292" y="151.5625" rx="5.25" ry="5.25" width="13.12" height="13.12"/>
    <rect x="268.2292" y="166.1458" rx="5.25" ry="5.25" width="13.12" height="13.12"/>
    <rect x="268.2292" y="180.7292" rx="5.25" ry="5.25" width="13.12" height="13.12"/>
    <rect x="268.2292" y="195.3125" rx="5.25" ry="5.25" width="13.12" height="13.12"/>
    <rect x="282.8125" y="122.3958" rx="5.25" ry="5.25" width="13.12" height="13.12"/>
    <rect x="282.8125" y="136.9792" rx="5.25" ry="5.25" width="13.12" height="13.12"/>
    <rect x="282.8125" y="151.5625" rx="5.25" ry="5.25" width="13.12" height="13.12"/>
    <rect x="282.8125" y="166.1458" rx="5.25" ry="5.25" width="13.12" height="13.12"/>
    <rect x="282.8125" y="180.7292" rx="5.25" ry="5.25" width="13.12" height="13.12"/>
    <rect x="282.8125" y="195.3125" rx="5.25" ry="5.25" width="13.12" height="13.12"/>
    <rect x="297.3958" y="122.3958" rx="5.25" ry="5.25" width="13.12" height="13.12"/>
    <rect x="297.3958" y="136.9792" rx="5.25" ry="5.25" width="13.12" height="13.12"/>
    <rect x="297.3958" y="151.5625" rx="5.25" ry="5.25" width="13.12" height="13.12"/>
    <rect x="297.3958" y="166.1458" rx="5.25" ry="5.25" width="13.12" height="13.12"/>
    <rect x="297.3958" y="180.7292" rx="5.25" ry="5.25" width="13.12" height="13.12"/>
    <rect x="297.3958" y="195.3125" rx="5.25" ry="5.25" width="13.12" height="13.12"/>
    <rect x="311.9792" y="122.3958" rx="5.25" ry="5.25" width="13.12" height="13.12"/>
    <rect x="311.9792" y="136.9792" rx="5.25" ry="5.25" width="13.12" height="13.12"/>
    <rect x="311.9792" y="151.5625" rx="5.25" ry="5.25" width="13.12" height="13.12"/>
    <rect x="311.9792" y="166.1458" rx="5.25" ry="5.25" width="13.12" height="13.12"/>
    <rect x="311.9792" y="180.7292" rx="5.25" ry="5.25" width="13.12" height="13.12"/>
    <rect x="311.9792" y="195.3125" rx="5.25" ry="5.25" width="13.12" height="13.12"/>
    <rect x="326.5625" y="122.3958" rx="5.25" ry="5.25" width="13.12" height="13.12"/>
    <rect x="326.5625" y="136.9792" rx="5.25" ry="5.25" width="13.12" height="13.12"/>
    <rect x="326.5625" y="151.5625" rx="5.25" ry="5.25" width="13.12" height="13.12"/>
    <rect x="326.5625" y="166.1458" rx="5.25" ry="5.25" width="13.12" height="13.12"/>
    <rect x="326.5625" y="180.7292" rx="5.25" ry="5.25" width="13.12" height="13.12"/>
    <rect x="326.5625" y="195.3125" rx="5.25" ry="5.25" width="13.12" height="13.12"/>
    <rect x="341.1458" y="122.3958" rx="5.25" ry="5.25" width="13.12" height="13.12"/>
    <rect x="341.1458" y="136.9792" rx="5.25" ry="5.25" width="13.12" height="13.12"/>
    <rect x="341.1458" y="151.5625" rx="5.25" ry="5.25" width="13.12" height="13.12"/>
    <rect x="341.1458" y="166.1458" rx="5.25" ry="5.25" width="13.12" height="13.12"/>
  </g>
  </g>
  <g id="centerbench">
  </g>
</g>
</svg>
